{"asset":{"version":"2.0","generator":"THREE.GLTFExporter"},"scenes":[{"nodes":[0],"name":"AuxScene"}],"scene":0,"nodes":[{"mesh":0}],"bufferViews":[{"buffer":0,"byteOffset":0,"byteLength":215820,"target":34962,"byteStride":12},{"buffer":0,"byteOffset":215820,"byteLength":215820,"target":34962,"byteStride":12}],"buffers":[{"byteLength":431640,"uri":"data:application/octet-stream;base64,"}],"accessors":[{"bufferView":0,"componentType":5126,"count":17985,"max":[100.61190795898438,40.595970153808594,100.61190795898438],"min":[-100.78809356689453,0.39597299695014954,-100.78809356689453],"type":"VEC3"},{"bufferView":1,"componentType":5126,"count":17985,"max":[0.9843745231628418,1,0.9931273460388184],"min":[-0.9899483323097229,0.06757067888975143,-0.9759026765823364],"type":"VEC3"}],"materials":[{"pbrMetallicRoughness":{"baseColorFactor":[0.5019607843137255,0.5019607843137255,0.5019607843137255,1],"metallicFactor":0,"roughnessFactor":1}}],"meshes":[{"primitives":[{"mode":4,"attributes":{"POSITION":0,"NORMAL":1},"material":0}]}]}